<svg width="100%" height="100%" viewBox="0 0 132 16" fill="none" xmlns="http://www.w3.org/2000/svg">
<path fill-rule="evenodd" clip-rule="evenodd" d="M83.2291 15.43C86.8627 15.43 89.0843 13.5329 89.0843 10.5818C89.0843 8.43169 87.9216 6.42917 84.2257 6.42917H82.3571C80.4053 6.42917 79.7825 5.586 79.7825 4.48988C79.7825 2.95109 81.0282 2.00253 83.0838 2.00253C85.2847 2.00253 86.4059 3.07757 86.4889 5.14333H88.8767C88.7521 2.08685 86.9249 0 83.1253 0C79.5541 0 77.3947 1.8339 77.3947 4.5742C77.3947 6.87183 78.8896 8.55817 82.0456 8.55817H83.9143C86.1152 8.55817 86.6758 9.54889 86.6758 10.6661C86.6758 12.3524 85.3885 13.4275 83.2706 13.4275C81.0075 13.4275 79.6994 12.226 79.5956 9.99156H77.1871C77.3117 13.3432 79.388 15.43 83.2291 15.43ZM46.5564 15.0927H49.0064L50.2937 11.4039H56.1074L57.3739 15.0927H59.8655L54.3841 0.337267H52.0171L46.5564 15.0927ZM50.9789 9.42242L51.8094 7.01939C52.1839 5.92462 52.5151 4.90664 52.8265 3.9496L52.8266 3.9491L52.8267 3.94904V3.94888L52.8268 3.94867L52.8269 3.94831C52.947 3.57903 53.0642 3.21882 53.1798 2.86678H53.2006C53.2909 3.14181 53.3821 3.42183 53.4751 3.70683L53.476 3.70976L53.4761 3.70996V3.71009C53.8101 4.73473 54.1652 5.82377 54.5709 6.97723L55.4222 9.42242H50.9789ZM61.1522 15.0927H63.4984V10.8769L65.5747 8.53709H65.6163L70.1841 15.0927H73.1117L67.132 6.76644L72.8003 0.337267H69.7689L63.54 7.56745H63.4984V0.337267H61.1522V15.0927ZM75.9031 5.75463H74.0552L73.9513 0.337267H76.0069L75.9031 5.75463ZM97.4693 0.337288V13.0902H103.116V15.0927H95.123V0.337288H97.4693ZM106.617 15.0927H104.167L109.627 0.337288H111.994L117.476 15.0927H114.984L113.718 11.4039H107.904L106.617 15.0927ZM109.42 7.01941L108.589 9.42243H113.032L112.181 6.97725C111.775 5.82383 111.421 4.73483 111.086 3.71021L111.085 3.70477L111.08 3.69142C110.989 3.41174 110.9 3.13687 110.811 2.86679H110.79C110.675 3.21738 110.558 3.57606 110.439 3.94373L110.437 3.94867L110.437 3.94944L110.437 3.95C110.125 4.90692 109.794 5.92479 109.42 7.01941ZM118.762 15.0927H125.344C128.458 15.0927 130.39 13.2167 130.39 10.7715C130.39 8.68467 128.936 7.20912 126.403 7.12481V7.08264C128.272 6.89293 129.352 5.7125 129.352 4.00508C129.352 1.81283 127.587 0.337288 124.95 0.337288H118.762V15.0927ZM121.109 13.0902V8.32632H124.97C126.943 8.32632 127.961 9.23272 127.961 10.7083C127.961 12.1627 126.985 13.0902 124.97 13.0902H121.109ZM121.109 6.36594V2.33982H124.535C126.133 2.33982 126.943 3.14082 126.943 4.34234C126.943 5.56493 126.112 6.36594 124.535 6.36594H121.109ZM7.59915 15.4299C11.7961 15.4299 15.1983 11.9758 15.1983 7.715C15.1983 3.45418 11.7961 0.000117011 7.59915 0.000117011C3.40226 0.000117011 0 3.45418 0 7.715C0 11.9758 3.40226 15.4299 7.59915 15.4299ZM23.5572 15.4299C27.754 15.4299 31.1563 11.9758 31.1563 7.715C31.1563 3.45418 27.754 0.000117011 23.5572 0.000117011C19.3603 0.000117011 15.958 3.45418 15.958 7.715C15.958 11.9758 19.3603 15.4299 23.5572 15.4299ZM39.5157 15.4299C35.3189 15.4299 31.9166 11.9758 31.9166 7.715C31.9166 3.45418 35.3189 0.000117011 39.5157 0.000117011C43.7126 0.000117011 47.1149 3.45418 47.1149 7.715C47.1149 11.9758 43.7126 15.4299 39.5157 15.4299ZM39.5157 13.0441C42.4148 13.0441 44.7649 10.6581 44.7649 7.71497C44.7649 4.77179 42.4148 2.38587 39.5157 2.38587C36.6167 2.38587 34.2666 4.77179 34.2666 7.71497C34.2666 10.6581 36.6167 13.0441 39.5157 13.0441Z" fill="currentColor"></path>
</svg>